<svg width="18" height="18" viewBox="0 0 18 18" fill="none" xmlns="http://www.w3.org/2000/svg">
    <path d="M7.6 5.86C8.44 5.86 9.2 6.03333 9.88 6.38C10.56 6.71333 11.0933 7.24
    11.48 7.96C11.88 8.68 12.08 9.61333 12.08 10.76V17H7.56V11.54C7.56 10.86 7.44
    10.38 7.2 10.1C6.96 9.80667 6.63333 9.66 6.22 9.66C5.91333 9.66 5.62667 9.73333
    5.36 9.88C5.10667 10.0133 4.9 10.24 4.74 10.56C4.59333 10.88 4.52 11.3133 4.52
    11.86V17H1.49012e-08V6.06H4.3V9.26L3.44 8.34C3.86667 7.51333 4.44 6.89333 5.16
    6.48C5.89333 6.06667 6.70667 5.86 7.6 5.86ZM20.2783 17.2C18.9449 17.2 17.7783
    16.68C146.471 16.9733 145.678 17.12 144.798 17.12Z"
          fill="#F65261"/>
</svg>
